<?xml version="1.0" encoding="utf-8"?>
<!-- Generator: Adobe Illustrator 27.8.1, SVG Export Plug-In . SVG Version: 6.00 Build 0)  -->
<svg version="1.1" id="Layer_1" xmlns="http://www.w3.org/2000/svg" xmlns:xlink="http://www.w3.org/1999/xlink" x="0px" y="0px"
	 width="31.9px" height="32px" viewBox="0 0 31.9 32" style="enable-background:new 0 0 31.9 32;" xml:space="preserve">
<style type="text/css">
	.st0{fill:#183A58;}
	.st1{fill:#606060;}
	.st2{fill:#D78F44;}
	.st3{fill:#41699F;}
	.st4{fill:#F0425F;}
</style>
<g>
	<path d="M33.7,0.7c0-1.1-0.4-1.8-1.4-2.2h-32c-0.5,0-1.1,0.2-1.4,0.6c0,0-0.1,0.1-0.1,0.1c-0.3,0.3-0.4,0.8-0.4,1.2v31.3
		c0,0.4,0.1,0.8,0.3,1.2c0.1,0.2,0.3,0.4,0.5,0.5c0.4,0.2,0.8,0.3,1.2,0.3c10.4,0,20.8,0,31.2,0c1.3,0,2.1-0.7,2.1-2
		c0-5.7,0-11.3,0-17C33.7,10,33.6,5.3,33.7,0.7z M27.2,10.9c0.4,0.4,0.8,0.9,1.1,1.3c0.1,0.1,0.2,0.2,0,0.4c-0.2,0.2-0.3,0-0.4-0.1
		c-0.4-0.5-0.8-0.9-1.2-1.4c-0.1-0.1-0.2-0.1-0.1-0.2c0.1-0.1,0.2-0.1,0.2-0.2C27.1,10.7,27.1,10.8,27.2,10.9z M28.1,10
		c0.1,0,0.3,0,0.4-0.1c0.6,0,0.9,0.3,1.2,0.7c0.2,0.4,0,0.7-0.3,1c-0.2,0.2-0.3,0.2-0.5-0.1c-0.2-0.3-0.5-0.7-0.8-0.9
		C27.7,10.3,27.7,10.1,28.1,10z M26.5,0.1c0.3,0,0.2,0.2,0.2,0.3c0,2.2,0.1,4.3,0.1,6.5c0,0.8,0,1.7,0,2.5c0,0.1,0,0.2,0,0.3
		c0,0.1,0,0.2-0.2,0.2c-0.2,0-0.1-0.2-0.1-0.2c0-0.9,0-1.9,0-2.8c0-0.6-0.1-1.2-0.1-1.9c0-1.5,0-3,0-4.6C26.4,0.3,26.3,0.1,26.5,0.1
		z M26.1,11.6c0.4,0.5,0.8,1,1.3,1.4c0.1,0.2,0.1,0.2,0,0.4c-0.7,0.5-1.3,1.1-2,1.6c-0.2,0.1-0.4,0.2-0.6,0.2
		c-0.6,0-1.4-0.6-1.6-1.1c-0.1-0.3,0-0.6,0.3-0.9c0.7-0.6,1.5-1.1,2.3-1.7C25.9,11.4,26,11.5,26.1,11.6z M4.3,32c-1.2,0-2.4,0-3.7,0
		c-0.5,0-0.5-0.2-0.5-0.6c0-5.1,0-10.3,0-15.4V0.7c0-0.6,0-0.6,0.6-0.6c8.1,0,16.2,0,24.2,0c0.4,0,0.6,0.1,0.6,0.5
		c0,3.1,0.1,6.3,0.1,9.4c0,0.4-0.1,0.7-0.5,0.9c-0.7,0.4-1.3,0.9-2,1.4c-1,0.7-1.3,1.8-0.5,2.7c0.9,1.1,2.3,1.4,3.3,0.6
		c1.2-0.9,2.3-1.9,3.5-2.8c0.2-0.2,0.4-0.3,0.6-0.5c0.6-0.7,0.7-1.4,0.4-2C30,9.4,29.1,9,28.2,9.2c-0.6,0.1-0.6,0.1-0.6-0.5
		c0-2.7-0.1-5.3-0.1-8c0-0.8-0.1-0.6,0.6-0.6c1.1,0,2.2,0,3.2,0c0.4,0,0.5,0.1,0.5,0.5c0,4.7,0,9.3,0,14c0,0.2,0,0.4-0.1,0.5
		c-1.9,3.6-3.7,7.1-5.5,10.7c-0.2,0.3-0.3,0.5-0.7,0.5c-0.4,0-0.8,0-1.2,0.1c-0.7,0.1-1.2,0.4-1.5,1c-0.1,0.3-0.3,0.3-0.5,0.3
		c-1.9-0.1-3.8-0.3-5.7-0.4c-0.4,0-0.5-0.2-0.5-0.5c0-3.3,0-6.5,0-9.8c0-0.4,0.2-0.8,0.4-1.2c0.1-0.2,0.3-0.1,0.4-0.2
		c1.2-0.1,2.2-0.4,3.1-1.1c0.3-0.2,0.2-0.3-0.1-0.5c-0.7-0.3-1.3-0.7-1.5-1.4c-0.2-0.6-0.1-0.8,0.6-0.8c0.9,0,1.8,0,2.7-0.1
		c0.3,0,0.5-0.1,0.5-0.4c0.2-1.9,0.2-3.8-0.8-5.5c-0.8-1.4-2-2.3-3.6-2.5c-0.3,0-0.4-0.1-0.6-0.3c-0.7-0.8-1.6-0.9-2.5-0.7
		C14,2.4,13.6,3.1,13.5,4c0,0.2,0,0.3-0.2,0.5C11.7,6,11.3,8,11.4,10c0.1,1.2,0.4,2.4,1.2,3.5c0.1,0.2,0.1,0.3,0,0.5
		c-0.3,0.5-0.7,0.9-1.3,1c-1.1,0.3-1.7,1.2-2.2,2.1c-1.2,2-1.9,4.3-2.5,6.5c-0.7,2.6-1.3,5.3-1.7,8C4.7,32,4.6,32,4.3,32z
		 M31.5,19.1c-1.1,2.1-2.2,4.3-3.3,6.4c-0.3,0.6-0.3,0.6-1.2,0.5c1.6-3.1,3.2-6.1,4.8-9.3C32.1,17.7,31.9,18.4,31.5,19.1z
		 M12.8,12.2C12,10.1,12,8,13.1,6c0.1-0.2,0.2-0.3,0.4-0.5c0.1,0.5,0.2,0.9,0.3,1.4c0,0.2-0.2,0.2-0.3,0.3c-1,0.9-1.2,2.3-0.3,3.3
		c0.8,1,2.3,1.2,3.4,0.5c1.5-1,1.5-3.2-0.1-4.1c-0.3-0.1-0.4-0.3-0.4-0.6C16,5.8,16,5.1,16,4.5C16,4.1,16.1,4,16.4,4
		c2.4-0.2,4.2,0.9,4.9,3.2c0.3,1.1,0.4,2.2,0.3,3.4c0,0.4-0.4,0.3-0.7,0.4c-1.8,0.1,0,0-1.8,0.1c-1,0.1-1.3-0.1-1.4,0.5
		c-0.2,0.9,0.1,1.7,0.8,2.4c0.1,0.1,0.2,0.2,0.4,0.3c-1,0.5-2.1,0.6-3.1,0.3C14.4,14.3,13.3,13.5,12.8,12.2z M15.7,15.6
		c-0.1,0.2,0,0.5-0.3,0.4c-0.9-0.2-1.8-0.3-2.7-0.8c0.2-0.3,0.4-0.6,0.6-0.7c0.3-0.1,0.5,0.3,0.8,0.4c0.4,0.2,0.9,0.4,1.4,0.5
		C15.6,15.4,15.9,15.4,15.7,15.6z M15.2,6.3c0,0.2,0.1,0.4-0.2,0.4c-0.3,0-0.4-0.1-0.4-0.3c-0.1-0.7-0.3-1.5-0.2-2.2
		c0.1-0.8,0.4-1.1,1.1-1.2C15,4.1,15.1,5.2,15.2,6.3z M15.1,7.5c0.9,0,1.7,0.7,1.7,1.6c0,0.9-0.7,1.6-1.6,1.6
		c-0.9,0-1.7-0.7-1.7-1.6C13.5,8.3,14.2,7.5,15.1,7.5z M14.9,32C12,32,9,32,6.1,32c-0.3,0-0.5,0-0.4-0.4c0.7-3.9,1.5-7.8,2.9-11.5
		c0.4-1.2,0.9-2.3,1.7-3.3c0.2-0.2,0.4-0.5,0.6-0.7c0.4-0.3,0.9-0.5,1.5-0.2c0.8,0.4,1.7,0.6,2.6,0.8c0.3,0.1,0.5,0.2,0.5,0.5
		c0,1.5,0,3.1,0,4.7c0,1.5,0,3.1,0,4.6c0,0.3-0.1,0.5-0.5,0.4c-1-0.1-1-0.1-0.9-1c0.1-1.3,0.2-2.7,0.3-4c0-0.4-0.1-0.4-0.4-0.4
		c-0.3,0-0.4,0.1-0.4,0.4c-0.1,1.1-0.1,1.1-1.2,1c-0.5,0-1.1,0-1.6-0.1c-0.1,0-0.3,0-0.3-0.2c0-1.2-0.1-2.3,0.3-3.4
		c0.2-0.7,0.6-1.3,1.5-1.4c1-0.1,1.6,0.5,1.6,1.5c0,0.4,0.2,0.6,0.7,0.5c0.2,0,0.1-0.1,0.2-0.2c0.1-1.1-0.5-2.2-1.6-2.5
		c-1.2-0.4-2.4,0.1-3,1.1c-0.5,0.8-0.6,1.7-0.6,2.6c-0.1,2.8-0.1,5.5-0.1,8.3c0,0.8,0,0.8,0.8,1c1.5,0.3,3,0.5,4.6,0.6
		c0.6,0.1,0.6,0.1,0.6,0.6c0,0.1,0,0.2,0,0.3C15.4,31.9,15.3,32,14.9,32z M23.2,31.6C23.1,31.9,23,32,22.7,32c-1,0-2,0-3,0
		c-1,0-2,0-3,0c-0.3,0-0.5-0.1-0.5-0.4c0-0.8,0-0.8,0.8-0.7c1.8,0.1,3.6,0.1,5.3,0.1c0.4,0,0.6,0.2,0.8,0.4
		C23.4,31.4,23.2,31.6,23.2,31.6z M24.1,32c-0.1,0-0.1-0.1-0.1-0.1c0.1-0.1,0.1-0.3,0.3-0.3c0.3,0,0.5,0,0.8,0
		C25,32,24.4,32.2,24.1,32z M24.1,30.7c-0.3-0.1-0.6-0.1-0.7-0.4c-0.1-0.2-0.3-0.1-0.4-0.1c-3.5,0.1-7-0.1-10.5-0.5
		c-0.6-0.1-1.2-0.2-1.9-0.3c-0.3,0-0.4-0.2-0.4-0.4c0-0.8,0-1.6,0-2.4l0-0.2c0-0.8,0.1-1.4,0.1-2.2c0-0.3,0.1-0.4,0.5-0.3
		c0.7,0.1,1.3,0.1,2,0.1c0.5,0,0.5,0.1,0.5,0.4c-0.1,1-0.2,2-0.3,3.1c0,0.3,0,0.4,0.4,0.4c3.2,0.2,6.4,0.5,9.6,0.7
		c0.4,0,0.5,0,0.5-0.4c0-0.5,0.3-0.9,0.8-0.9c1.1-0.1,2.1-0.3,3.2-0.1c0.3,0,0.6,0.1,0.7,0.4c0.2,0.5,0,0.9-0.6,0.9
		c-0.5,0-0.7,0.1-0.7,0.7c0,0.3-0.1,0.5-0.2,0.8c-0.2,0.6-0.6,0.9-1.3,1C25.1,30.7,24.6,30.8,24.1,30.7z M31.4,32
		c-1.6,0-3.3,0-4.9,0c-0.1,0-0.4,0.1-0.4-0.1c0-0.2,0.1-0.4,0.3-0.5c0.9-0.4,1.3-1.1,1.5-2c0-0.2,0.1-0.3,0.3-0.4
		c1.1-0.3,1.5-1.5,0.8-2.3c-0.2-0.2-0.2-0.4-0.1-0.6c0.9-1.8,1.8-3.7,2.8-5.5c0.1-0.1,0.1-0.3,0.3-0.4v5.4c0,1.9,0,3.9,0,5.8
		C32,31.9,31.8,32,31.4,32z"/>
	<path class="st0" d="M29.4,11.7c-0.2,0.2-0.3,0.2-0.5-0.1c-0.2-0.3-0.5-0.7-0.8-0.9c-0.4-0.4-0.4-0.5,0-0.6c0.1,0,0.3,0,0.4-0.1
		c0.6,0,0.9,0.3,1.2,0.7C29.9,11.1,29.7,11.4,29.4,11.7z"/>
	<path class="st0" d="M27.3,13.4c-0.7,0.5-1.3,1.1-2,1.6c-0.2,0.1-0.4,0.2-0.6,0.2c-0.6,0-1.4-0.6-1.6-1.1c-0.1-0.3,0-0.6,0.3-0.9
		c0.7-0.6,1.5-1.1,2.3-1.7c0.1-0.1,0.2,0,0.3,0.1c0.4,0.5,0.8,1,1.3,1.4C27.5,13.2,27.5,13.3,27.3,13.4z"/>
	<path class="st1" d="M28.4,12.6c-0.2,0.2-0.3,0-0.4-0.1c-0.4-0.5-0.8-0.9-1.2-1.4c-0.1-0.1-0.2-0.1-0.1-0.2
		c0.1-0.1,0.2-0.1,0.2-0.2c0.2,0,0.2,0.1,0.3,0.2c0.4,0.4,0.8,0.9,1.1,1.3C28.5,12.3,28.6,12.4,28.4,12.6z"/>
	<path class="st1" d="M26.8,9.6c0,0.1,0,0.2-0.2,0.2c-0.2,0-0.1-0.2-0.1-0.2c0-0.9,0-1.9,0-2.8c0-0.6-0.1-1.2-0.1-1.9
		c0-1.5,0-3,0-4.6c0-0.1-0.1-0.3,0.1-0.3c0.3,0,0.2,0.2,0.2,0.3c0,2.2,0.1,4.3,0.1,6.5c0,0.8,0,1.7,0,2.5
		C26.8,9.4,26.8,9.5,26.8,9.6z"/>
	<path class="st1" d="M15.2,6.3c0,0.2,0.1,0.4-0.2,0.4c-0.3,0-0.4-0.1-0.4-0.3c-0.1-0.7-0.3-1.5-0.2-2.2c0.1-0.8,0.4-1.1,1.1-1.2
		C15,4.1,15.1,5.2,15.2,6.3z"/>
	<path class="st1" d="M16.8,9.1c0,0.9-0.7,1.6-1.6,1.6c-0.9,0-1.7-0.7-1.7-1.6c0-0.9,0.8-1.6,1.6-1.6C16,7.5,16.8,8.2,16.8,9.1z"/>
	<path class="st2" d="M25.1,31.6c-0.1,0.4-0.7,0.6-1,0.4c-0.1,0-0.1-0.1-0.1-0.1c0.1-0.1,0.1-0.3,0.3-0.3
		C24.6,31.6,24.9,31.6,25.1,31.6z"/>
	<path class="st2" d="M31.5,19.1c-1.1,2.1-2.2,4.3-3.3,6.4c-0.3,0.6-0.3,0.6-1.2,0.5c1.6-3.1,3.2-6.1,4.8-9.3
		C32.1,17.7,31.9,18.4,31.5,19.1z"/>
	<path class="st3" d="M15.5,22c0,1.5,0,3.1,0,4.6c0,0.3-0.1,0.5-0.5,0.4c-1-0.1-1-0.1-0.9-1c0.1-1.3,0.2-2.7,0.3-4
		c0-0.4-0.1-0.4-0.4-0.4c-0.3,0-0.4,0.1-0.4,0.4c-0.1,1.1-0.1,1.1-1.2,1c-0.5,0-1.1,0-1.6-0.1c-0.1,0-0.3,0-0.3-0.2
		c0-1.2-0.1-2.3,0.3-3.4c0.2-0.7,0.6-1.3,1.5-1.4c1-0.1,1.6,0.5,1.6,1.5c0,0.4,0.2,0.6,0.7,0.5c0.2,0,0.1-0.1,0.2-0.2
		c0.1-1.1-0.5-2.2-1.6-2.5c-1.2-0.4-2.4,0.1-3,1.1c-0.5,0.8-0.6,1.7-0.6,2.6c-0.1,2.8-0.1,5.5-0.1,8.3c0,0.8,0,0.8,0.8,1
		c1.5,0.3,3,0.5,4.6,0.6c0.6,0.1,0.6,0.1,0.6,0.6c0,0.1,0,0.2,0,0.3c0,0.3-0.1,0.4-0.5,0.4C12,32,9,32,6.1,32c-0.3,0-0.5,0-0.4-0.4
		c0.7-3.9,1.5-7.8,2.9-11.5c0.4-1.2,0.9-2.3,1.7-3.3c0.2-0.2,0.4-0.5,0.6-0.7c0.4-0.3,0.9-0.5,1.5-0.2c0.8,0.4,1.7,0.6,2.6,0.8
		c0.3,0.1,0.5,0.2,0.5,0.5C15.4,18.9,15.5,20.4,15.5,22z"/>
	<path class="st4" d="M15.7,15.6c-0.1,0.2,0,0.5-0.3,0.4c-0.9-0.2-1.8-0.3-2.7-0.8c0.2-0.3,0.4-0.6,0.6-0.7c0.3-0.1,0.5,0.3,0.8,0.4
		c0.4,0.2,0.9,0.4,1.4,0.5C15.6,15.4,15.9,15.4,15.7,15.6z"/>
	<path class="st4" d="M21.3,7.2c-0.7-2.3-2.5-3.4-4.9-3.2C16.1,4,16,4.1,16,4.5c0,0.7,0,1.3,0.1,2c0,0.3,0.1,0.4,0.4,0.6
		c1.6,0.9,1.6,3.1,0.1,4.1c-1.1,0.7-2.6,0.5-3.4-0.5c-0.8-1-0.7-2.4,0.3-3.3c0.1-0.1,0.3-0.1,0.3-0.3c-0.1-0.4-0.2-0.9-0.3-1.4
		c-0.2,0.1-0.3,0.3-0.4,0.5c-1.1,2-1,4.1-0.3,6.2c0.5,1.3,1.6,2.1,3,2.4c1,0.2,2.1,0.2,3.1-0.3c-0.2-0.1-0.3-0.2-0.4-0.3
		c-0.7-0.7-1-1.5-0.8-2.4c0.1-0.5,0.4-0.4,1.4-0.5c1.8-0.1,0,0,1.8-0.1c0.3,0,0.6,0.1,0.7-0.4C21.7,9.4,21.7,8.3,21.3,7.2z M20.2,8
		c-0.1,0.4-0.4,0.6-0.8,0.6c-0.4,0-0.6-0.1-0.8-0.4c-0.1-0.2-0.2-0.3-0.1-0.5c0.1-0.1,0.3,0.1,0.4,0.1C19.3,8,19.6,8,19.9,7.8
		c0.1-0.1,0.2-0.2,0.3-0.1C20.2,7.8,20.2,7.9,20.2,8z"/>
	<path class="st4" d="M27.8,28.3c-0.5,0-0.7,0.1-0.7,0.7c0,0.3-0.1,0.5-0.2,0.8c-0.2,0.6-0.6,0.9-1.3,1c-0.5,0-0.9,0.1-1.4,0
		c-0.3-0.1-0.6-0.1-0.7-0.4c-0.1-0.2-0.3-0.1-0.4-0.1c-3.5,0.1-7-0.1-10.5-0.5c-0.6-0.1-1.2-0.2-1.9-0.3c-0.3,0-0.4-0.2-0.4-0.4
		c0-0.8,0-1.6,0-2.4l0-0.2c0-0.8,0.1-1.4,0.1-2.2c0-0.3,0.1-0.4,0.5-0.3c0.7,0.1,1.3,0.1,2,0.1c0.5,0,0.5,0.1,0.5,0.4
		c-0.1,1-0.2,2-0.3,3.1c0,0.3,0,0.4,0.4,0.4c3.2,0.2,6.4,0.5,9.6,0.7c0.4,0,0.5,0,0.5-0.4c0-0.5,0.3-0.9,0.8-0.9
		c1.1-0.1,2.1-0.3,3.2-0.1c0.3,0,0.6,0.1,0.7,0.4C28.6,27.9,28.3,28.3,27.8,28.3z"/>
	<path class="st0" d="M23.2,31.6C23.1,31.9,23,32,22.7,32c-1,0-2,0-3,0c-1,0-2,0-3,0c-0.3,0-0.5-0.1-0.5-0.4c0-0.8,0-0.8,0.8-0.7
		c1.8,0.1,3.6,0.1,5.3,0.1c0.4,0,0.6,0.2,0.8,0.4C23.4,31.4,23.2,31.6,23.2,31.6z"/>
	<path class="st0" d="M32,31.5c0,0.4-0.1,0.5-0.6,0.5c-1.6,0-3.3,0-4.9,0c-0.1,0-0.4,0.1-0.4-0.1c0-0.2,0.1-0.4,0.3-0.5
		c0.9-0.4,1.3-1.1,1.5-2c0-0.2,0.1-0.3,0.3-0.4c1.1-0.3,1.5-1.5,0.8-2.3c-0.2-0.2-0.2-0.4-0.1-0.6c0.9-1.8,1.8-3.7,2.8-5.5
		c0.1-0.1,0.1-0.3,0.3-0.4v5.4C31.9,27.6,31.9,29.6,32,31.5z"/>
	<path class="st0" d="M31.9,14.5c0,0.2,0,0.4-0.1,0.5c-1.9,3.6-3.7,7.1-5.5,10.7c-0.2,0.3-0.3,0.5-0.7,0.5c-0.4,0-0.8,0-1.2,0.1
		c-0.7,0.1-1.2,0.4-1.5,1c-0.1,0.3-0.3,0.3-0.5,0.3c-1.9-0.1-3.8-0.3-5.7-0.4c-0.4,0-0.5-0.2-0.5-0.5c0-3.3,0-6.5,0-9.8
		c0-0.4,0.2-0.8,0.4-1.2c0.1-0.2,0.3-0.1,0.4-0.2c1.2-0.1,2.2-0.4,3.1-1.1c0.3-0.2,0.2-0.3-0.1-0.5c-0.7-0.3-1.3-0.7-1.5-1.4
		c-0.2-0.6-0.1-0.8,0.6-0.8c0.9,0,1.8,0,2.7-0.1c0.3,0,0.5-0.1,0.5-0.4c0.2-1.9,0.2-3.8-0.8-5.5c-0.8-1.4-2-2.3-3.6-2.5
		c-0.3,0-0.4-0.1-0.6-0.3c-0.7-0.8-1.6-0.9-2.5-0.7C14,2.4,13.6,3.1,13.5,4c0,0.2,0,0.3-0.2,0.5C11.7,6,11.3,8,11.4,10
		c0.1,1.2,0.4,2.4,1.2,3.5c0.1,0.2,0.1,0.3,0,0.5c-0.3,0.5-0.7,0.9-1.3,1c-1.1,0.3-1.7,1.2-2.2,2.1c-1.2,2-1.9,4.3-2.5,6.5
		c-0.7,2.6-1.3,5.3-1.7,8C4.7,32,4.6,32,4.3,32c-1.2,0-2.4,0-3.7,0c-0.5,0-0.5-0.2-0.5-0.6c0-5.1,0-10.3,0-15.4V0.7
		c0-0.6,0-0.6,0.6-0.6c8.1,0,16.2,0,24.2,0c0.4,0,0.6,0.1,0.6,0.5c0,3.1,0.1,6.3,0.1,9.4c0,0.4-0.1,0.7-0.5,0.9
		c-0.7,0.4-1.3,0.9-2,1.4c-1,0.7-1.3,1.8-0.5,2.7c0.9,1.1,2.3,1.4,3.3,0.6c1.2-0.9,2.3-1.9,3.5-2.8c0.2-0.2,0.4-0.3,0.6-0.5
		c0.6-0.7,0.7-1.4,0.4-2C30,9.4,29.1,9,28.2,9.2c-0.6,0.1-0.6,0.1-0.6-0.5c0-2.7-0.1-5.3-0.1-8c0-0.8-0.1-0.6,0.6-0.6
		c1.1,0,2.2,0,3.2,0c0.4,0,0.5,0.1,0.5,0.5C31.9,5.2,31.9,9.9,31.9,14.5z"/>
	<path d="M20.2,8c-0.1,0.4-0.4,0.6-0.8,0.6c-0.4,0-0.6-0.1-0.8-0.4c-0.1-0.2-0.2-0.3-0.1-0.5c0.1-0.1,0.3,0.1,0.4,0.1
		C19.3,8,19.6,8,19.9,7.8c0.1-0.1,0.2-0.2,0.3-0.1C20.2,7.8,20.2,7.9,20.2,8z"/>
</g>
</svg>
